<svg width="100" height="100" viewBox="0 0 100 100" fill="none" xmlns="http://www.w3.org/2000/svg">
<rect width="100" height="100" rx="6" fill="#F6F6F6"/>
<path fill-rule="evenodd" clip-rule="evenodd" d="M55.3334 42.9993C54.4129 42.9993 53.6667 43.7455 53.6667 44.666C53.6667 45.5865 54.4129 46.3327 55.3334 46.3327C56.2539 46.3327 57.0001 45.5865 57.0001 44.666C57.0001 43.7455 56.2539 42.9993 55.3334 42.9993ZM51.6667 44.666C51.6667 42.641 53.3084 40.9993 55.3334 40.9993C57.3585 40.9993 59.0001 42.641 59.0001 44.666C59.0001 46.6911 57.3585 48.3327 55.3334 48.3327C53.3084 48.3327 51.6667 46.6911 51.6667 44.666Z" fill="#BBBBBB"/>
<path fill-rule="evenodd" clip-rule="evenodd" d="M49.9236 35.666H50.0766C53.1544 35.666 55.5665 35.666 57.4485 35.919C59.3748 36.178 60.8948 36.7185 62.0879 37.9115C63.281 39.1046 63.8214 40.6246 64.0804 42.551C64.3334 44.4329 64.3334 46.845 64.3334 49.9229V50.0758C64.3334 53.1537 64.3334 55.5658 64.0804 57.4477C63.8214 59.3741 63.281 60.8941 62.0879 62.0872C60.8948 63.2802 59.3748 63.8207 57.4485 64.0797C55.5665 64.3327 53.1544 64.3327 50.0766 64.3327H49.9236C46.8457 64.3327 44.4337 64.3327 42.5517 64.0797C40.6254 63.8207 39.1053 63.2802 37.9123 62.0872C36.7192 60.8941 36.1787 59.3741 35.9197 57.4477C35.6667 55.5658 35.6667 53.1537 35.6667 50.0759V49.9228C35.6667 46.845 35.6667 44.4329 35.9197 42.551C36.1787 40.6246 36.7192 39.1046 37.9123 37.9115C39.1053 36.7185 40.6254 36.178 42.5517 35.919C44.4337 35.666 46.8457 35.666 49.9236 35.666ZM39.3265 60.673C38.5669 59.9134 38.1311 58.8858 37.9019 57.1812C37.6973 55.6592 37.6707 53.7174 37.6673 51.1195L39.6607 49.3753C40.4795 48.6588 41.7136 48.6999 42.483 49.4693L48.2026 55.1889C49.4625 56.4488 51.4458 56.6206 52.9036 55.5961L53.3012 55.3167C54.4454 54.5125 55.9935 54.6057 57.0331 55.5413L61.3311 59.4095C61.3779 59.4516 61.4275 59.4885 61.4794 59.5201C61.2639 59.9747 60.9983 60.3483 60.6737 60.673C59.9141 61.4325 58.8865 61.8684 57.182 62.0975C55.4487 62.3306 53.171 62.3327 50.0001 62.3327C46.8291 62.3327 44.5515 62.3306 42.8182 62.0975C41.1136 61.8684 40.086 61.4325 39.3265 60.673ZM42.8182 37.9012C41.1136 38.1303 40.086 38.5662 39.3265 39.3257C38.5669 40.0853 38.1311 41.1129 37.9019 42.8175C37.7084 44.2568 37.6741 46.0714 37.668 48.4613L38.3437 47.8701C39.9549 46.4603 42.3833 46.5412 43.8972 48.055L49.6168 53.7747C50.1895 54.3474 51.091 54.4255 51.7536 53.9598L52.1512 53.6803C54.0583 52.3401 56.6384 52.4954 58.371 54.0547L62.0696 57.3834C62.0795 57.3171 62.089 57.2497 62.0983 57.1812C62.3313 55.4479 62.3334 53.1703 62.3334 49.9993C62.3334 46.8284 62.3313 44.5508 62.0983 42.8175C61.8691 41.1129 61.4332 40.0853 60.6737 39.3257C59.9141 38.5662 58.8865 38.1303 57.182 37.9012C55.4487 37.6681 53.171 37.666 50.0001 37.666C46.8291 37.666 44.5515 37.6681 42.8182 37.9012Z" fill="#BBBBBB"/>
</svg>
