<svg width="160" height="160" viewBox="0 0 160 160" fill="none" xmlns="http://www.w3.org/2000/svg">
<rect width="160" height="160" rx="6" fill="#F6F6F6"/>
<path fill-rule="evenodd" clip-rule="evenodd" d="M86.6666 71.2507C85.516 71.2507 84.5833 72.1834 84.5833 73.334C84.5833 74.4846 85.516 75.4173 86.6666 75.4173C87.8172 75.4173 88.7499 74.4846 88.7499 73.334C88.7499 72.1834 87.8172 71.2507 86.6666 71.2507ZM82.0833 73.334C82.0833 70.8027 84.1353 68.7507 86.6666 68.7507C89.1979 68.7507 91.2499 70.8027 91.2499 73.334C91.2499 75.8653 89.1979 77.9173 86.6666 77.9173C84.1353 77.9173 82.0833 75.8653 82.0833 73.334Z" fill="#BBBBBB"/>
<path fill-rule="evenodd" clip-rule="evenodd" d="M79.9043 62.084H80.0955C83.9429 62.084 86.9579 62.0839 89.3104 62.4002C91.7183 62.724 93.6183 63.3995 95.1097 64.8909C96.601 66.3822 97.2766 68.2823 97.6003 70.6902C97.9166 73.0426 97.9166 76.0577 97.9166 79.905V80.0963C97.9166 83.9436 97.9166 86.9587 97.6003 89.3111C97.2766 91.719 96.601 93.6191 95.1097 95.1104C93.6183 96.6018 91.7183 97.2773 89.3104 97.6011C86.9579 97.9174 83.9429 97.9173 80.0955 97.9173H79.9043C76.057 97.9173 73.0419 97.9174 70.6894 97.6011C68.2815 97.2773 66.3815 96.6018 64.8901 95.1104C63.3988 93.6191 62.7232 91.719 62.3995 89.3111C62.0832 86.9587 62.0832 83.9436 62.0833 80.0963V79.905C62.0832 76.0577 62.0832 73.0426 62.3995 70.6902C62.7232 68.2823 63.3988 66.3822 64.8901 64.8909C66.3815 63.3995 68.2815 62.724 70.6894 62.4002C73.0419 62.0839 76.057 62.084 79.9043 62.084ZM66.6579 93.3427C65.7085 92.3932 65.1637 91.1087 64.8772 88.978C64.6214 87.0754 64.5882 84.6482 64.5839 81.4009L67.0757 79.2206C68.0992 78.325 69.6418 78.3763 70.6035 79.338L77.7531 86.4876C79.328 88.0625 81.8071 88.2772 83.6293 86.9966L84.1263 86.6473C85.5566 85.6421 87.4917 85.7586 88.7912 86.928L94.1637 91.7633C94.2222 91.816 94.2843 91.862 94.349 91.9016C94.0796 92.4698 93.7477 92.9368 93.3419 93.3427C92.3925 94.2921 91.108 94.8369 88.9773 95.1234C86.8107 95.4147 83.9636 95.4173 79.9999 95.4173C76.0362 95.4173 73.1892 95.4147 71.0225 95.1234C68.8919 94.8369 67.6073 94.2921 66.6579 93.3427ZM71.0225 64.8779C68.8919 65.1644 67.6073 65.7092 66.6579 66.6586C65.7085 67.6081 65.1637 68.8926 64.8772 71.0233C64.6353 72.8224 64.5925 75.0908 64.5849 78.0781L65.4294 77.3391C67.4435 75.5768 70.4789 75.6779 72.3713 77.5703L79.5208 84.7198C80.2367 85.4357 81.3636 85.5333 82.1919 84.9512L82.6888 84.6019C85.0727 82.9266 88.2979 83.1207 90.4636 85.0698L95.0868 89.2307C95.0992 89.1478 95.1111 89.0636 95.1226 88.978C95.4139 86.8114 95.4166 83.9644 95.4166 80.0007C95.4166 76.0369 95.4139 73.1899 95.1226 71.0233C94.8362 68.8926 94.2914 67.6081 93.3419 66.6586C92.3925 65.7092 91.108 65.1644 88.9773 64.8779C86.8107 64.5866 83.9636 64.584 79.9999 64.584C76.0362 64.584 73.1892 64.5866 71.0225 64.8779Z" fill="#BBBBBB"/>
</svg>
