<svg width="103" height="40" viewBox="0 0 103 40" fill="none" xmlns="http://www.w3.org/2000/svg">
<path d="M11.6678 15.776V11.044H9.14781V15.776H11.6678ZM4.66781 11.044H3.26781V7.404H17.5758V11.044H16.1478V15.776H17.5758V19.416H3.26781V15.776H4.66781V11.044ZM19.5358 22.076V7.32H24.4358V22.076H19.5358ZM3.12781 26.332C5.64781 25.94 7.71981 25.296 9.28781 24.428C10.8278 23.588 11.8078 22.468 12.2558 21.124L12.3118 20.76H17.5478V21.068C17.4638 21.74 17.3238 22.384 17.0998 23C17.5758 23.084 18.0518 23.168 18.4998 23.252C19.2838 23.448 20.0678 23.672 20.8518 23.952C21.6358 24.232 22.4198 24.54 23.2598 24.932C24.0438 25.324 24.9118 25.8 25.8638 26.332L23.5118 30.392C21.9438 29.44 20.4318 28.656 18.9758 28.04C17.5478 27.48 16.0358 27.032 14.3838 26.752C14.2438 26.864 14.1038 26.976 13.9918 27.06C11.8638 28.684 8.81181 29.748 4.83581 30.252L3.12781 26.332ZM38.2529 28.656H27.5009V7.824H38.2529V15.832H40.5209V7.32H44.9729V29.888H40.5209V20.48L38.2529 20.564V28.656ZM34.0529 24.596V11.884H31.7009V24.596H34.0529ZM46.3449 29.888V7.32H50.7689V29.888H46.3449ZM60.0249 11.8C59.7449 11.8 59.4649 11.884 59.2129 12.024C58.9329 12.192 58.7089 12.472 58.5129 12.92C58.3169 13.368 58.1769 14.012 58.0649 14.824C57.9249 15.664 57.8689 16.784 57.8689 18.128C57.8689 19.528 57.9249 20.62 58.0649 21.432C58.1769 22.272 58.3169 22.916 58.5129 23.364C58.7089 23.812 58.9329 24.12 59.2129 24.232C59.4649 24.4 59.7449 24.456 60.0249 24.456C60.2769 24.456 60.5289 24.4 60.8089 24.232C61.0609 24.12 61.2849 23.812 61.5089 23.364C61.6769 22.916 61.8449 22.272 61.9849 21.432C62.0969 20.62 62.1809 19.528 62.1809 18.128C62.1809 16.784 62.0969 15.664 61.9849 14.824C61.8449 14.012 61.6769 13.368 61.5089 12.92C61.2849 12.472 61.0609 12.192 60.8089 12.024C60.5289 11.884 60.2769 11.8 60.0249 11.8ZM60.0249 7.18C61.0889 7.18 62.0409 7.376 62.9089 7.768C63.7489 8.188 64.4489 8.832 65.0649 9.7C65.6529 10.596 66.1289 11.716 66.4649 13.088C66.7729 14.488 66.9409 16.168 66.9409 18.128C66.9409 20.144 66.7729 21.824 66.4649 23.196C66.1289 24.596 65.6529 25.716 65.0649 26.584C64.4489 27.48 63.7489 28.096 62.9089 28.488C62.0409 28.88 61.0889 29.076 60.0249 29.076C58.9329 29.076 57.9809 28.88 57.1409 28.488C56.2729 28.096 55.5449 27.48 54.9569 26.584C54.3409 25.716 53.8929 24.596 53.5849 23.196C53.2489 21.824 53.1089 20.144 53.1089 18.128C53.1089 16.168 53.2489 14.488 53.5849 13.088C53.8929 11.716 54.3409 10.596 54.9569 9.7C55.5449 8.832 56.2729 8.188 57.1409 7.768C57.9809 7.376 58.9329 7.18 60.0249 7.18ZM69.0689 29.86V7.32H74.2489V29.86H69.0689ZM93.834 18.94C94.898 18.94 95.85 18.912 96.746 18.856C97.586 18.828 98.342 18.744 99.014 18.632V22.776C98.51 22.944 97.81 23.084 96.942 23.14C96.046 23.252 95.066 23.28 94.002 23.28H78.21V7.32H98.594V11.66H82.97V13.116H98.314V17.456H82.97V18.94H93.834ZM76.838 29.524V25.324H99.994V29.524H76.838Z" fill="#1B92FF"/>
</svg>
