<svg width="175" height="80" viewBox="0 0 175 80" fill="none" xmlns="http://www.w3.org/2000/svg">
<path d="M19.2163 33.616V25.504H14.8963V33.616H19.2163ZM7.21625 25.504H4.81625V19.264H29.3443V25.504H26.8962V33.616H29.3443V39.856H4.81625V33.616H7.21625V25.504ZM32.7043 44.416V19.12H41.1043V44.416H32.7043ZM4.57625 51.712C8.89625 51.04 12.4483 49.936 15.1363 48.448C17.7763 47.008 19.4563 45.088 20.2243 42.784L20.3203 42.16H29.2963V42.688C29.1523 43.84 28.9123 44.944 28.5283 46C29.3443 46.144 30.1603 46.288 30.9283 46.432C32.2723 46.768 33.6163 47.152 34.9603 47.632C36.3043 48.112 37.6483 48.64 39.0883 49.312C40.4323 49.984 41.9203 50.8 43.5523 51.712L39.5203 58.672C36.8323 57.04 34.2403 55.696 31.7443 54.64C29.2963 53.68 26.7043 52.912 23.8723 52.432C23.6323 52.624 23.3923 52.816 23.2003 52.96C19.5523 55.744 14.3203 57.568 7.50425 58.432L4.57625 51.712ZM64.7908 55.696H46.3588V19.984H64.7908V33.712H68.6788V19.12H76.3108V57.808H68.6788V41.68L64.7908 41.824V55.696ZM57.5908 48.736V26.944H53.5588V48.736H57.5908ZM78.6628 57.808V19.12H86.2468V57.808H78.6628ZM102.114 26.8C101.634 26.8 101.154 26.944 100.722 27.184C100.242 27.472 99.8581 27.952 99.5221 28.72C99.1861 29.488 98.9461 30.592 98.7541 31.984C98.5141 33.424 98.4181 35.344 98.4181 37.648C98.4181 40.048 98.5141 41.92 98.7541 43.312C98.9461 44.752 99.1861 45.856 99.5221 46.624C99.8581 47.392 100.242 47.92 100.722 48.112C101.154 48.4 101.634 48.496 102.114 48.496C102.546 48.496 102.978 48.4 103.458 48.112C103.89 47.92 104.274 47.392 104.658 46.624C104.946 45.856 105.234 44.752 105.474 43.312C105.666 41.92 105.81 40.048 105.81 37.648C105.81 35.344 105.666 33.424 105.474 31.984C105.234 30.592 104.946 29.488 104.658 28.72C104.274 27.952 103.89 27.472 103.458 27.184C102.978 26.944 102.546 26.8 102.114 26.8ZM102.114 18.88C103.938 18.88 105.57 19.216 107.058 19.888C108.498 20.608 109.698 21.712 110.754 23.2C111.762 24.736 112.578 26.656 113.154 29.008C113.682 31.408 113.97 34.288 113.97 37.648C113.97 41.104 113.682 43.984 113.154 46.336C112.578 48.736 111.762 50.656 110.754 52.144C109.698 53.68 108.498 54.736 107.058 55.408C105.57 56.08 103.938 56.416 102.114 56.416C100.242 56.416 98.6101 56.08 97.1701 55.408C95.6821 54.736 94.4341 53.68 93.4261 52.144C92.3701 50.656 91.6021 48.736 91.0741 46.336C90.4981 43.984 90.2581 41.104 90.2581 37.648C90.2581 34.288 90.4981 31.408 91.0741 29.008C91.6021 26.656 92.3701 24.736 93.4261 23.2C94.4341 21.712 95.6821 20.608 97.1701 19.888C98.6101 19.216 100.242 18.88 102.114 18.88ZM117.618 57.76V19.12H126.498V57.76H117.618ZM160.073 39.04C161.897 39.04 163.529 38.992 165.065 38.896C166.505 38.848 167.801 38.704 168.953 38.512V45.616C168.089 45.904 166.889 46.144 165.401 46.24C163.865 46.432 162.185 46.48 160.361 46.48H133.289V19.12H168.233V26.56H141.449V29.056H167.753V36.496H141.449V39.04H160.073ZM130.937 57.184V49.984H170.633V57.184H130.937Z" fill="#1B92FF"/>
</svg>
