<svg width="189" height="56" viewBox="0 0 189 56" fill="none" xmlns="http://www.w3.org/2000/svg">
<circle cx="24" cy="24.6992" r="24" fill="#1B92FF"/>
<mask id="mask0_1_1454" style="mask-type:alpha" maskUnits="userSpaceOnUse" x="24" y="0" width="24" height="56">
<rect width="24" height="54.6" transform="matrix(1 0 0 -1 24 55.2988)" fill="#D9D9D9"/>
</mask>
<g mask="url(#mask0_1_1454)">
<path d="M0 24.6992C-3.8147e-06 44.4992 24 55.2992 24 55.2992C24 55.2992 48 44.4992 48 24.6992C48 11.4444 37.2548 0.699219 24 0.699219C10.7452 0.699219 0 11.4444 0 24.6992Z" fill="#1B92FF"/>
</g>
<path d="M10.9091 17.7273C10.9091 16.7733 11.6417 16 12.5455 16H15.8182C16.7219 16 17.4545 16.7733 17.4545 17.7273V33.2727C17.4545 34.2267 16.7219 35 15.8182 35H12.5455C11.6417 35 10.9091 34.2267 10.9091 33.2727V17.7273Z" fill="white"/>
<path d="M6 22.9091C6 21.0012 7.46525 19.4545 9.27273 19.4545V31.5455C7.46525 31.5455 6 29.9988 6 28.0909V22.9091Z" fill="white"/>
<path d="M32.1818 16C31.2781 16 30.5455 16.7733 30.5455 17.7273V33.2727C30.5455 34.2267 31.2781 35 32.1818 35H35.4545C36.3583 35 37.0909 34.2267 37.0909 33.2727V17.7273C37.0909 16.7733 36.3583 16 35.4545 16H32.1818Z" fill="white"/>
<path d="M38.7273 19.4545C40.5348 19.4545 42 21.0012 42 22.9091V28.0909C42 29.9988 40.5348 31.5455 38.7273 31.5455V19.4545Z" fill="white"/>
<path d="M28.9091 22.9091H19.0909V28.0909H28.9091V22.9091Z" fill="white"/>
<path d="M68.2872 22.712V16.628H65.0472V22.712H68.2872ZM59.2872 16.628H57.4872V11.948H75.8832V16.628H74.0472V22.712H75.8832V27.392H57.4872V22.712H59.2872V16.628ZM78.4032 30.812V11.84H84.7032V30.812H78.4032ZM57.3072 36.284C60.5472 35.78 63.2112 34.952 65.2272 33.836C67.2072 32.756 68.4672 31.316 69.0432 29.588L69.1152 29.12H75.8472V29.516C75.7392 30.38 75.5592 31.208 75.2712 32C75.8832 32.108 76.4952 32.216 77.0712 32.324C78.0792 32.576 79.0872 32.864 80.0952 33.224C81.1032 33.584 82.1112 33.98 83.1912 34.484C84.1992 34.988 85.3152 35.6 86.5392 36.284L83.5152 41.504C81.4992 40.28 79.5552 39.272 77.6832 38.48C75.8472 37.76 73.9032 37.184 71.7792 36.824C71.5992 36.968 71.4192 37.112 71.2752 37.22C68.5392 39.308 64.6152 40.676 59.5032 41.324L57.3072 36.284ZM102.468 39.272H88.6441V12.488H102.468V22.784H105.384V11.84H111.108V40.856H105.384V28.76L102.468 28.868V39.272ZM97.0681 34.052V17.708H94.0441V34.052H97.0681ZM112.872 40.856V11.84H118.56V40.856H112.872ZM130.461 17.6C130.101 17.6 129.741 17.708 129.417 17.888C129.057 18.104 128.769 18.464 128.517 19.04C128.265 19.616 128.085 20.444 127.941 21.488C127.761 22.568 127.689 24.008 127.689 25.736C127.689 27.536 127.761 28.94 127.941 29.984C128.085 31.064 128.265 31.892 128.517 32.468C128.769 33.044 129.057 33.44 129.417 33.584C129.741 33.8 130.101 33.872 130.461 33.872C130.785 33.872 131.109 33.8 131.469 33.584C131.793 33.44 132.081 33.044 132.369 32.468C132.585 31.892 132.801 31.064 132.981 29.984C133.125 28.94 133.233 27.536 133.233 25.736C133.233 24.008 133.125 22.568 132.981 21.488C132.801 20.444 132.585 19.616 132.369 19.04C132.081 18.464 131.793 18.104 131.469 17.888C131.109 17.708 130.785 17.6 130.461 17.6ZM130.461 11.66C131.829 11.66 133.053 11.912 134.169 12.416C135.249 12.956 136.149 13.784 136.941 14.9C137.697 16.052 138.309 17.492 138.741 19.256C139.137 21.056 139.353 23.216 139.353 25.736C139.353 28.328 139.137 30.488 138.741 32.252C138.309 34.052 137.697 35.492 136.941 36.608C136.149 37.76 135.249 38.552 134.169 39.056C133.053 39.56 131.829 39.812 130.461 39.812C129.057 39.812 127.833 39.56 126.753 39.056C125.637 38.552 124.701 37.76 123.945 36.608C123.153 35.492 122.577 34.052 122.181 32.252C121.749 30.488 121.569 28.328 121.569 25.736C121.569 23.216 121.749 21.056 122.181 19.256C122.577 17.492 123.153 16.052 123.945 14.9C124.701 13.784 125.637 12.956 126.753 12.416C127.833 11.912 129.057 11.66 130.461 11.66ZM142.089 40.82V11.84H148.749V40.82H142.089ZM173.929 26.78C175.297 26.78 176.521 26.744 177.673 26.672C178.753 26.636 179.725 26.528 180.589 26.384V31.712C179.941 31.928 179.041 32.108 177.925 32.18C176.773 32.324 175.513 32.36 174.145 32.36H153.841V11.84H180.049V17.42H159.961V19.292H179.689V24.872H159.961V26.78H173.929ZM152.077 40.388V34.988H181.849V40.388H152.077Z" fill="#1B92FF"/>
</svg>
