<svg width="134" height="64" viewBox="0 0 134 64" fill="none" xmlns="http://www.w3.org/2000/svg">
<path d="M15.7872 26.712V20.628H12.5472V26.712H15.7872ZM6.78719 20.628H4.98719V15.948H23.3832V20.628H21.5472V26.712H23.3832V31.392H4.98719V26.712H6.78719V20.628ZM25.9032 34.812V15.84H32.2032V34.812H25.9032ZM4.80719 40.284C8.04719 39.78 10.7112 38.952 12.7272 37.836C14.7072 36.756 15.9672 35.316 16.5432 33.588L16.6152 33.12H23.3472V33.516C23.2392 34.38 23.0592 35.208 22.7712 36C23.3832 36.108 23.9952 36.216 24.5712 36.324C25.5792 36.576 26.5872 36.864 27.5952 37.224C28.6032 37.584 29.6112 37.98 30.6912 38.484C31.6992 38.988 32.8152 39.6 34.0392 40.284L31.0152 45.504C28.9992 44.28 27.0552 43.272 25.1832 42.48C23.3472 41.76 21.4032 41.184 19.2792 40.824C19.0992 40.968 18.9192 41.112 18.7752 41.22C16.0392 43.308 12.1152 44.676 7.00319 45.324L4.80719 40.284ZM49.9681 43.272H36.1441V16.488H49.9681V26.784H52.8841V15.84H58.6081V44.856H52.8841V32.76L49.9681 32.868V43.272ZM44.5681 38.052V21.708H41.5441V38.052H44.5681ZM60.3721 44.856V15.84H66.0601V44.856H60.3721ZM77.9606 21.6C77.6006 21.6 77.2406 21.708 76.9166 21.888C76.5566 22.104 76.2686 22.464 76.0166 23.04C75.7646 23.616 75.5846 24.444 75.4406 25.488C75.2606 26.568 75.1886 28.008 75.1886 29.736C75.1886 31.536 75.2606 32.94 75.4406 33.984C75.5846 35.064 75.7646 35.892 76.0166 36.468C76.2686 37.044 76.5566 37.44 76.9166 37.584C77.2406 37.8 77.6006 37.872 77.9606 37.872C78.2846 37.872 78.6086 37.8 78.9686 37.584C79.2926 37.44 79.5806 37.044 79.8686 36.468C80.0846 35.892 80.3006 35.064 80.4806 33.984C80.6246 32.94 80.7326 31.536 80.7326 29.736C80.7326 28.008 80.6246 26.568 80.4806 25.488C80.3006 24.444 80.0846 23.616 79.8686 23.04C79.5806 22.464 79.2926 22.104 78.9686 21.888C78.6086 21.708 78.2846 21.6 77.9606 21.6ZM77.9606 15.66C79.3286 15.66 80.5526 15.912 81.6686 16.416C82.7486 16.956 83.6486 17.784 84.4406 18.9C85.1966 20.052 85.8086 21.492 86.2406 23.256C86.6366 25.056 86.8526 27.216 86.8526 29.736C86.8526 32.328 86.6366 34.488 86.2406 36.252C85.8086 38.052 85.1966 39.492 84.4406 40.608C83.6486 41.76 82.7486 42.552 81.6686 43.056C80.5526 43.56 79.3286 43.812 77.9606 43.812C76.5566 43.812 75.3326 43.56 74.2526 43.056C73.1366 42.552 72.2006 41.76 71.4446 40.608C70.6526 39.492 70.0766 38.052 69.6806 36.252C69.2486 34.488 69.0686 32.328 69.0686 29.736C69.0686 27.216 69.2486 25.056 69.6806 23.256C70.0766 21.492 70.6526 20.052 71.4446 18.9C72.2006 17.784 73.1366 16.956 74.2526 16.416C75.3326 15.912 76.5566 15.66 77.9606 15.66ZM89.5886 44.82V15.84H96.2486V44.82H89.5886ZM121.429 30.78C122.797 30.78 124.021 30.744 125.173 30.672C126.253 30.636 127.225 30.528 128.089 30.384V35.712C127.441 35.928 126.541 36.108 125.425 36.18C124.273 36.324 123.013 36.36 121.645 36.36H101.341V15.84H127.549V21.42H107.461V23.292H127.189V28.872H107.461V30.78H121.429ZM99.5775 44.388V38.988H129.349V44.388H99.5775Z" fill="#1B92FF"/>
</svg>
