<svg width="88" height="24" viewBox="0 0 88 24" fill="none" xmlns="http://www.w3.org/2000/svg">
<path d="M9.85813 8.808V4.752H7.69813V8.808H9.85813ZM3.85813 4.752H2.65813V1.632H14.9221V4.752H13.6981V8.808H14.9221V11.928H2.65813V8.808H3.85813V4.752ZM16.6021 14.208V1.56H20.8021V14.208H16.6021ZM2.53813 17.856C4.69813 17.52 6.47413 16.968 7.81813 16.224C9.13813 15.504 9.97813 14.544 10.3621 13.392L10.4101 13.08H14.8981V13.344C14.8261 13.92 14.7061 14.472 14.5141 15C14.9221 15.072 15.3301 15.144 15.7141 15.216C16.3861 15.384 17.0581 15.576 17.7301 15.816C18.4021 16.056 19.0741 16.32 19.7941 16.656C20.4661 16.992 21.2101 17.4 22.0261 17.856L20.0101 21.336C18.6661 20.52 17.3701 19.848 16.1221 19.32C14.8981 18.84 13.6021 18.456 12.1861 18.216C12.0661 18.312 11.9461 18.408 11.8501 18.48C10.0261 19.872 7.41013 20.784 4.00213 21.216L2.53813 17.856ZM32.6454 19.848H23.4294V1.992H32.6454V8.856H34.5894V1.56H38.4054V20.904H34.5894V12.84L32.6454 12.912V19.848ZM29.0454 16.368V5.472H27.0294V16.368H29.0454ZM39.5814 20.904V1.56H43.3734V20.904H39.5814ZM51.3071 5.4C51.0671 5.4 50.8271 5.472 50.6111 5.592C50.3711 5.736 50.1791 5.976 50.0111 6.36C49.8431 6.744 49.7231 7.296 49.6271 7.992C49.5071 8.712 49.4591 9.672 49.4591 10.824C49.4591 12.024 49.5071 12.96 49.6271 13.656C49.7231 14.376 49.8431 14.928 50.0111 15.312C50.1791 15.696 50.3711 15.96 50.6111 16.056C50.8271 16.2 51.0671 16.248 51.3071 16.248C51.5231 16.248 51.7391 16.2 51.9791 16.056C52.1951 15.96 52.3871 15.696 52.5791 15.312C52.7231 14.928 52.8671 14.376 52.9871 13.656C53.0831 12.96 53.1551 12.024 53.1551 10.824C53.1551 9.672 53.0831 8.712 52.9871 7.992C52.8671 7.296 52.7231 6.744 52.5791 6.36C52.3871 5.976 52.1951 5.736 51.9791 5.592C51.7391 5.472 51.5231 5.4 51.3071 5.4ZM51.3071 1.44C52.2191 1.44 53.0351 1.608 53.7791 1.944C54.4991 2.304 55.0991 2.856 55.6271 3.6C56.1311 4.368 56.5391 5.328 56.8271 6.504C57.0911 7.704 57.2351 9.144 57.2351 10.824C57.2351 12.552 57.0911 13.992 56.8271 15.168C56.5391 16.368 56.1311 17.328 55.6271 18.072C55.0991 18.84 54.4991 19.368 53.7791 19.704C53.0351 20.04 52.2191 20.208 51.3071 20.208C50.3711 20.208 49.5551 20.04 48.8351 19.704C48.0911 19.368 47.4671 18.84 46.9631 18.072C46.4351 17.328 46.0511 16.368 45.7871 15.168C45.4991 13.992 45.3791 12.552 45.3791 10.824C45.3791 9.144 45.4991 7.704 45.7871 6.504C46.0511 5.328 46.4351 4.368 46.9631 3.6C47.4671 2.856 48.0911 2.304 48.8351 1.944C49.5551 1.608 50.3711 1.44 51.3071 1.44ZM59.0591 20.88V1.56H63.4991V20.88H59.0591ZM80.2863 11.52C81.1983 11.52 82.0143 11.496 82.7823 11.448C83.5023 11.424 84.1503 11.352 84.7263 11.256V14.808C84.2943 14.952 83.6943 15.072 82.9503 15.12C82.1823 15.216 81.3423 15.24 80.4303 15.24H66.8943V1.56H84.3663V5.28H70.9743V6.528H84.1263V10.248H70.9743V11.52H80.2863ZM65.7183 20.592V16.992H85.5663V20.592H65.7183Z" fill="#1B92FF"/>
</svg>
