<svg width="146" height="44" viewBox="0 0 146 44" fill="none" xmlns="http://www.w3.org/2000/svg">
<circle cx="19.9998" cy="19.3602" r="19.2" fill="#1B92FF"/>
<mask id="mask0_1_1499" style="mask-type:alpha" maskUnits="userSpaceOnUse" x="20" y="0" width="20" height="44">
<rect width="19.2" height="43.68" transform="matrix(1 0 0 -1 20 43.8398)" fill="#D9D9D9"/>
</mask>
<g mask="url(#mask0_1_1499)">
<path d="M0.79995 19.3602C0.79995 35.2002 20 43.8402 20 43.8402C20 43.8402 39.2 35.2002 39.2 19.3602C39.2 8.75629 30.6038 0.160156 20 0.160156C9.39608 0.160156 0.79995 8.75629 0.79995 19.3602Z" fill="#1B92FF"/>
</g>
<path d="M9.81818 14.2727C9.81818 13.5698 10.388 13 11.0909 13H13.6364C14.3393 13 14.9091 13.5698 14.9091 14.2727V25.7273C14.9091 26.4302 14.3393 27 13.6364 27H11.0909C10.388 27 9.81818 26.4302 9.81818 25.7273V14.2727Z" fill="white"/>
<path d="M6 18.0909C6 16.6851 7.13964 15.5455 8.54545 15.5455V24.4545C7.13964 24.4545 6 23.3149 6 21.9091V18.0909Z" fill="white"/>
<path d="M26.3636 13C25.6607 13 25.0909 13.5698 25.0909 14.2727V25.7273C25.0909 26.4302 25.6607 27 26.3636 27H28.9091C29.612 27 30.1818 26.4302 30.1818 25.7273V14.2727C30.1818 13.5698 29.612 13 28.9091 13H26.3636Z" fill="white"/>
<path d="M31.4545 15.5455C32.8604 15.5455 34 16.6851 34 18.0909V21.9091C34 23.3149 32.8604 24.4545 31.4545 24.4545V15.5455Z" fill="white"/>
<path d="M23.8182 18.0909H16.1818V21.9091H23.8182V18.0909Z" fill="white"/>
<path d="M56.868 17.776V13.044H54.348V17.776H56.868ZM49.868 13.044H48.468V9.404H62.776V13.044H61.348V17.776H62.776V21.416H48.468V17.776H49.868V13.044ZM64.736 24.076V9.32H69.636V24.076H64.736ZM48.328 28.332C50.848 27.94 52.92 27.296 54.488 26.428C56.028 25.588 57.008 24.468 57.456 23.124L57.512 22.76H62.748V23.068C62.664 23.74 62.524 24.384 62.3 25C62.776 25.084 63.252 25.168 63.7 25.252C64.484 25.448 65.268 25.672 66.052 25.952C66.836 26.232 67.62 26.54 68.46 26.932C69.244 27.324 70.112 27.8 71.064 28.332L68.712 32.392C67.144 31.44 65.632 30.656 64.176 30.04C62.748 29.48 61.236 29.032 59.584 28.752C59.444 28.864 59.304 28.976 59.192 29.06C57.064 30.684 54.012 31.748 50.036 32.252L48.328 28.332ZM83.4531 30.656H72.7011V9.824H83.4531V17.832H85.7211V9.32H90.1731V31.888H85.7211V22.48L83.4531 22.564V30.656ZM79.2531 26.596V13.884H76.9011V26.596H79.2531ZM91.5451 31.888V9.32H95.9691V31.888H91.5451ZM105.225 13.8C104.945 13.8 104.665 13.884 104.413 14.024C104.133 14.192 103.909 14.472 103.713 14.92C103.517 15.368 103.377 16.012 103.265 16.824C103.125 17.664 103.069 18.784 103.069 20.128C103.069 21.528 103.125 22.62 103.265 23.432C103.377 24.272 103.517 24.916 103.713 25.364C103.909 25.812 104.133 26.12 104.413 26.232C104.665 26.4 104.945 26.456 105.225 26.456C105.477 26.456 105.729 26.4 106.009 26.232C106.261 26.12 106.485 25.812 106.709 25.364C106.877 24.916 107.045 24.272 107.185 23.432C107.297 22.62 107.381 21.528 107.381 20.128C107.381 18.784 107.297 17.664 107.185 16.824C107.045 16.012 106.877 15.368 106.709 14.92C106.485 14.472 106.261 14.192 106.009 14.024C105.729 13.884 105.477 13.8 105.225 13.8ZM105.225 9.18C106.289 9.18 107.241 9.376 108.109 9.768C108.949 10.188 109.649 10.832 110.265 11.7C110.853 12.596 111.329 13.716 111.665 15.088C111.973 16.488 112.141 18.168 112.141 20.128C112.141 22.144 111.973 23.824 111.665 25.196C111.329 26.596 110.853 27.716 110.265 28.584C109.649 29.48 108.949 30.096 108.109 30.488C107.241 30.88 106.289 31.076 105.225 31.076C104.133 31.076 103.181 30.88 102.341 30.488C101.473 30.096 100.745 29.48 100.157 28.584C99.5411 27.716 99.0931 26.596 98.7851 25.196C98.4491 23.824 98.3091 22.144 98.3091 20.128C98.3091 18.168 98.4491 16.488 98.7851 15.088C99.0931 13.716 99.5411 12.596 100.157 11.7C100.745 10.832 101.473 10.188 102.341 9.768C103.181 9.376 104.133 9.18 105.225 9.18ZM114.269 31.86V9.32H119.449V31.86H114.269ZM139.034 20.94C140.098 20.94 141.05 20.912 141.946 20.856C142.786 20.828 143.542 20.744 144.214 20.632V24.776C143.71 24.944 143.01 25.084 142.142 25.14C141.246 25.252 140.266 25.28 139.202 25.28H123.41V9.32H143.794V13.66H128.17V15.116H143.514V19.456H128.17V20.94H139.034ZM122.038 31.524V27.324H145.194V31.524H122.038Z" fill="#1B92FF"/>
</svg>
