<svg width="244" height="80" viewBox="0 0 244 80" fill="none" xmlns="http://www.w3.org/2000/svg">
<ellipse cx="32" cy="36.4941" rx="26" ry="25.4942" fill="#1B92FF"/>
<mask id="mask0_1_1469" style="mask-type:alpha" maskUnits="userSpaceOnUse" x="32" y="11" width="26" height="58">
<rect width="26" height="57.9992" transform="matrix(1 0 0 -1 32 69)" fill="#D9D9D9"/>
</mask>
<g mask="url(#mask0_1_1469)">
<path d="M6 36.4942C6 57.5268 32 68.9992 32 68.9992C32 68.9992 58 57.5268 58 36.4942C58 22.4141 46.3594 11 32 11C17.6406 11 6 22.4141 6 36.4942Z" fill="#1B92FF"/>
</g>
<path d="M18.1818 28.9091C18.1818 27.8547 18.9551 27 19.9091 27H23.3636C24.3176 27 25.0909 27.8547 25.0909 28.9091V46.0909C25.0909 47.1453 24.3176 48 23.3636 48H19.9091C18.9551 48 18.1818 47.1453 18.1818 46.0909V28.9091Z" fill="white"/>
<path d="M13 34.6364C13 32.5276 14.5467 30.8182 16.4545 30.8182V44.1818C14.5467 44.1818 13 42.4724 13 40.3636V34.6364Z" fill="white"/>
<path d="M40.6364 27C39.6824 27 38.9091 27.8547 38.9091 28.9091V46.0909C38.9091 47.1453 39.6824 48 40.6364 48H44.0909C45.0449 48 45.8182 47.1453 45.8182 46.0909V28.9091C45.8182 27.8547 45.0449 27 44.0909 27H40.6364Z" fill="white"/>
<path d="M47.5455 30.8182C49.4533 30.8182 51 32.5276 51 34.6364V40.3636C51 42.4724 49.4533 44.1818 47.5455 44.1818V30.8182Z" fill="white"/>
<path d="M37.1818 34.6364H26.8182V40.3636H37.1818V34.6364Z" fill="white"/>
<path d="M85.2163 33.616V25.504H80.8963V33.616H85.2163ZM73.2163 25.504H70.8163V19.264H95.3443V25.504H92.8962V33.616H95.3443V39.856H70.8163V33.616H73.2163V25.504ZM98.7043 44.416V19.12H107.104V44.416H98.7043ZM70.5763 51.712C74.8963 51.04 78.4483 49.936 81.1363 48.448C83.7763 47.008 85.4563 45.088 86.2243 42.784L86.3203 42.16H95.2963V42.688C95.1523 43.84 94.9123 44.944 94.5283 46C95.3443 46.144 96.1603 46.288 96.9283 46.432C98.2723 46.768 99.6163 47.152 100.96 47.632C102.304 48.112 103.648 48.64 105.088 49.312C106.432 49.984 107.92 50.8 109.552 51.712L105.52 58.672C102.832 57.04 100.24 55.696 97.7443 54.64C95.2963 53.68 92.7043 52.912 89.8723 52.432C89.6323 52.624 89.3923 52.816 89.2003 52.96C85.5523 55.744 80.3203 57.568 73.5043 58.432L70.5763 51.712ZM130.791 55.696H112.359V19.984H130.791V33.712H134.679V19.12H142.311V57.808H134.679V41.68L130.791 41.824V55.696ZM123.591 48.736V26.944H119.559V48.736H123.591ZM144.663 57.808V19.12H152.247V57.808H144.663ZM168.114 26.8C167.634 26.8 167.154 26.944 166.722 27.184C166.242 27.472 165.858 27.952 165.522 28.72C165.186 29.488 164.946 30.592 164.754 31.984C164.514 33.424 164.418 35.344 164.418 37.648C164.418 40.048 164.514 41.92 164.754 43.312C164.946 44.752 165.186 45.856 165.522 46.624C165.858 47.392 166.242 47.92 166.722 48.112C167.154 48.4 167.634 48.496 168.114 48.496C168.546 48.496 168.978 48.4 169.458 48.112C169.89 47.92 170.274 47.392 170.658 46.624C170.946 45.856 171.234 44.752 171.474 43.312C171.666 41.92 171.81 40.048 171.81 37.648C171.81 35.344 171.666 33.424 171.474 31.984C171.234 30.592 170.946 29.488 170.658 28.72C170.274 27.952 169.89 27.472 169.458 27.184C168.978 26.944 168.546 26.8 168.114 26.8ZM168.114 18.88C169.938 18.88 171.57 19.216 173.058 19.888C174.498 20.608 175.698 21.712 176.754 23.2C177.762 24.736 178.578 26.656 179.154 29.008C179.682 31.408 179.97 34.288 179.97 37.648C179.97 41.104 179.682 43.984 179.154 46.336C178.578 48.736 177.762 50.656 176.754 52.144C175.698 53.68 174.498 54.736 173.058 55.408C171.57 56.08 169.938 56.416 168.114 56.416C166.242 56.416 164.61 56.08 163.17 55.408C161.682 54.736 160.434 53.68 159.426 52.144C158.37 50.656 157.602 48.736 157.074 46.336C156.498 43.984 156.258 41.104 156.258 37.648C156.258 34.288 156.498 31.408 157.074 29.008C157.602 26.656 158.37 24.736 159.426 23.2C160.434 21.712 161.682 20.608 163.17 19.888C164.61 19.216 166.242 18.88 168.114 18.88ZM183.618 57.76V19.12H192.498V57.76H183.618ZM226.073 39.04C227.897 39.04 229.529 38.992 231.065 38.896C232.505 38.848 233.801 38.704 234.953 38.512V45.616C234.089 45.904 232.889 46.144 231.401 46.24C229.865 46.432 228.185 46.48 226.361 46.48H199.289V19.12H234.233V26.56H207.449V29.056H233.753V36.496H207.449V39.04H226.073ZM196.937 57.184V49.984H236.633V57.184H196.937Z" fill="#1B92FF"/>
</svg>
