<svg width="120" height="34" viewBox="0 0 120 34" fill="none" xmlns="http://www.w3.org/2000/svg">
<circle cx="14.5001" cy="15.0191" r="14.4" fill="#1B92FF"/>
<mask id="mask0_1_1484" style="mask-type:alpha" maskUnits="userSpaceOnUse" x="14" y="0" width="15" height="34">
<rect width="14.4" height="32.76" transform="matrix(1 0 0 -1 14.5 33.3789)" fill="#D9D9D9"/>
</mask>
<g mask="url(#mask0_1_1484)">
<path d="M0.0999031 15.0191C0.0999031 26.8991 14.4999 33.3791 14.4999 33.3791C14.4999 33.3791 28.8999 26.8991 28.8999 15.0191C28.8999 7.06624 22.4528 0.619141 14.4999 0.619141C6.547 0.619141 0.0999031 7.06624 0.0999031 15.0191Z" fill="#1B92FF"/>
</g>
<path d="M6.13636 11C6.13636 10.4477 6.60443 10 7.18182 10H9.27273C9.85012 10 10.3182 10.4477 10.3182 11V20C10.3182 20.5523 9.85012 21 9.27273 21H7.18182C6.60443 21 6.13636 20.5523 6.13636 20V11Z" fill="white"/>
<path d="M3 14C3 12.8954 3.93613 12 5.09091 12V19C3.93613 19 3 18.1046 3 17V14Z" fill="white"/>
<path d="M19.7273 10C19.1499 10 18.6818 10.4477 18.6818 11V20C18.6818 20.5523 19.1499 21 19.7273 21H21.8182C22.3956 21 22.8636 20.5523 22.8636 20V11C22.8636 10.4477 22.3956 10 21.8182 10H19.7273Z" fill="white"/>
<path d="M23.9091 12C25.0639 12 26 12.8954 26 14V17C26 18.1046 25.0639 19 23.9091 19V12Z" fill="white"/>
<path d="M17.6364 14H11.3636V17H17.6364V14Z" fill="white"/>
<path d="M43.258 13.808V9.752H41.098V13.808H43.258ZM37.258 9.752H36.058V6.632H48.322V9.752H47.098V13.808H48.322V16.928H36.058V13.808H37.258V9.752ZM50.002 19.208V6.56H54.202V19.208H50.002ZM35.938 22.856C38.098 22.52 39.874 21.968 41.218 21.224C42.538 20.504 43.378 19.544 43.762 18.392L43.81 18.08H48.298V18.344C48.226 18.92 48.106 19.472 47.914 20C48.322 20.072 48.73 20.144 49.114 20.216C49.786 20.384 50.458 20.576 51.13 20.816C51.802 21.056 52.474 21.32 53.194 21.656C53.866 21.992 54.61 22.4 55.426 22.856L53.41 26.336C52.066 25.52 50.77 24.848 49.522 24.32C48.298 23.84 47.002 23.456 45.586 23.216C45.466 23.312 45.346 23.408 45.25 23.48C43.426 24.872 40.81 25.784 37.402 26.216L35.938 22.856ZM66.0453 24.848H56.8293V6.992H66.0453V13.856H67.9893V6.56H71.8053V25.904H67.9893V17.84L66.0453 17.912V24.848ZM62.4453 21.368V10.472H60.4293V21.368H62.4453ZM72.9813 25.904V6.56H76.7733V25.904H72.9813ZM84.707 10.4C84.467 10.4 84.227 10.472 84.011 10.592C83.771 10.736 83.579 10.976 83.411 11.36C83.243 11.744 83.123 12.296 83.027 12.992C82.907 13.712 82.859 14.672 82.859 15.824C82.859 17.024 82.907 17.96 83.027 18.656C83.123 19.376 83.243 19.928 83.411 20.312C83.579 20.696 83.771 20.96 84.011 21.056C84.227 21.2 84.467 21.248 84.707 21.248C84.923 21.248 85.139 21.2 85.379 21.056C85.595 20.96 85.787 20.696 85.979 20.312C86.123 19.928 86.267 19.376 86.387 18.656C86.483 17.96 86.555 17.024 86.555 15.824C86.555 14.672 86.483 13.712 86.387 12.992C86.267 12.296 86.123 11.744 85.979 11.36C85.787 10.976 85.595 10.736 85.379 10.592C85.139 10.472 84.923 10.4 84.707 10.4ZM84.707 6.44C85.619 6.44 86.435 6.608 87.179 6.944C87.899 7.304 88.499 7.856 89.027 8.6C89.531 9.368 89.939 10.328 90.227 11.504C90.491 12.704 90.635 14.144 90.635 15.824C90.635 17.552 90.491 18.992 90.227 20.168C89.939 21.368 89.531 22.328 89.027 23.072C88.499 23.84 87.899 24.368 87.179 24.704C86.435 25.04 85.619 25.208 84.707 25.208C83.771 25.208 82.955 25.04 82.235 24.704C81.491 24.368 80.867 23.84 80.363 23.072C79.835 22.328 79.451 21.368 79.187 20.168C78.899 18.992 78.779 17.552 78.779 15.824C78.779 14.144 78.899 12.704 79.187 11.504C79.451 10.328 79.835 9.368 80.363 8.6C80.867 7.856 81.491 7.304 82.235 6.944C82.955 6.608 83.771 6.44 84.707 6.44ZM92.459 25.88V6.56H96.899V25.88H92.459ZM113.686 16.52C114.598 16.52 115.414 16.496 116.182 16.448C116.902 16.424 117.55 16.352 118.126 16.256V19.808C117.694 19.952 117.094 20.072 116.35 20.12C115.582 20.216 114.742 20.24 113.83 20.24H100.294V6.56H117.766V10.28H104.374V11.528H117.526V15.248H104.374V16.52H113.686ZM99.1182 25.592V21.992H118.966V25.592H99.1182Z" fill="#1B92FF"/>
</svg>
