<svg width="24" height="24" viewBox="0 0 24 24" fill="none" xmlns="http://www.w3.org/2000/svg">
<path fill-rule="evenodd" clip-rule="evenodd" d="M12 23C18.0751 23 23 18.0751 23 12C23 5.92487 18.0751 1 12 1C5.92487 1 1 5.92487 1 12C1 18.0751 5.92487 23 12 23ZM4.94059 4.24837C4.70958 4.09708 4.39966 4.16172 4.24838 4.39273C4.09709 4.62374 4.16173 4.93366 4.39274 5.08494C7.19428 6.9196 8.02684 10.0354 7.79743 12.8116C7.66871 14.3694 6.8506 16.0022 5.82219 17.4415C5.48036 17.9199 5.14888 18.3808 4.7335 18.7337L4.71347 18.7502C4.65185 18.8004 4.50417 18.9208 4.41301 19.0616C4.26295 19.2934 4.32923 19.603 4.56104 19.7531C4.79076 19.9018 5.09683 19.838 5.24837 19.6113C5.25062 19.6088 5.25724 19.6018 5.27066 19.5895C5.28282 19.5785 5.29735 19.566 5.31651 19.5499L5.33542 19.5341C5.34983 19.522 5.36683 19.5078 5.381 19.4958C5.89655 19.0578 6.29159 18.5048 6.61702 18.0492L6.61703 18.0492L6.63583 18.0229C7.70766 16.5228 8.64366 14.7137 8.79403 12.894C9.04242 9.88822 8.14814 6.34891 4.94059 4.24837ZM19.7515 4.39361C19.6002 4.16259 19.2903 4.09796 19.0593 4.24925C15.8517 6.34979 14.9575 9.8891 15.2059 12.8949C15.3562 14.7146 16.2922 16.5237 17.3641 18.0238L17.3829 18.0501C17.7083 18.5056 18.1033 19.0586 18.6189 19.4967C18.6331 19.5087 18.6501 19.5229 18.6645 19.5349C18.6716 19.5409 18.6782 19.5464 18.6834 19.5507C18.7025 19.5668 18.7171 19.5793 18.7292 19.5904C18.7427 19.6027 18.7493 19.6097 18.7515 19.6122C18.9031 19.8389 19.2091 19.9026 19.4389 19.7539C19.6707 19.6039 19.7369 19.2943 19.5869 19.0625C19.4957 18.9217 19.348 18.8013 19.2864 18.7511C19.278 18.7443 19.2712 18.7387 19.2664 18.7346C18.851 18.3817 18.5195 17.9208 18.1777 17.4424C17.1493 16.0031 16.3312 14.3702 16.2025 12.8125C15.973 10.0363 16.8056 6.92048 19.6072 5.08582C19.8382 4.93454 19.9028 4.62462 19.7515 4.39361Z" fill="#1B92FF"/>
</svg>
