<svg width="20" height="20" viewBox="0 0 20 20" fill="none" xmlns="http://www.w3.org/2000/svg">
<g clip-path="url(#clip0_40000043_34304)">
<path fill-rule="evenodd" clip-rule="evenodd" d="M10 19C14.9706 19 19 14.9706 19 10C19 5.02944 14.9706 1 10 1C5.02944 1 1 5.02944 1 10C1 14.9706 5.02944 19 10 19ZM4.27393 3.5817C4.04291 3.43042 3.733 3.49505 3.58171 3.72606C3.43043 3.95708 3.49506 4.26699 3.72607 4.41828C5.98133 5.89519 6.65691 8.40602 6.47093 10.6566C6.36758 11.9073 5.70894 13.2272 4.87146 14.3993C4.59061 14.7923 4.32566 15.1599 3.99582 15.4401L3.98297 15.4507C3.93626 15.4884 3.80006 15.5987 3.71614 15.7283C3.56609 15.9601 3.63236 16.2697 3.86418 16.4197C4.09147 16.5669 4.39351 16.506 4.54665 16.2851L4.55542 16.2768C4.564 16.269 4.57477 16.2597 4.59014 16.2468L4.6047 16.2346L4.64332 16.2022C5.07383 15.8364 5.40266 15.3761 5.66769 15.005L5.6851 14.9807C6.566 13.7478 7.34253 12.2516 7.46754 10.7389C7.67249 8.2588 6.93519 5.3245 4.27393 3.5817ZM16.4181 3.72613C16.2668 3.49512 15.9569 3.43048 15.7259 3.58177C13.0646 5.32457 12.3273 8.25887 12.5323 10.739C12.6573 12.2517 13.4338 13.7479 14.3147 14.9807L14.3321 15.0051C14.5971 15.3761 14.926 15.8365 15.3565 16.2023C15.3684 16.2124 15.3831 16.2247 15.3951 16.2347C15.4008 16.2394 15.4058 16.2436 15.4097 16.2469C15.425 16.2598 15.4358 16.2691 15.4444 16.2769L15.4532 16.2851C15.6063 16.5061 15.9083 16.5669 16.1356 16.4198C16.3674 16.2697 16.4337 15.9602 16.2837 15.7284C16.1997 15.5987 16.0635 15.4885 16.0168 15.4507C16.0111 15.4461 16.0068 15.4426 16.004 15.4402C15.6741 15.16 15.4092 14.7924 15.1283 14.3994C14.2909 13.2273 13.6322 11.9073 13.5289 10.6566C13.3429 8.40609 14.0185 5.89526 16.2737 4.41834C16.5047 4.26706 16.5694 3.95714 16.4181 3.72613Z" fill="#1B92FF"/>
</g>
<defs>
<clipPath id="clip0_40000043_34304">
<rect width="20" height="20" fill="white"/>
</clipPath>
</defs>
</svg>
